<svg width="118" height="98" viewBox="0 0 118 98" fill="none" xmlns="http://www.w3.org/2000/svg">
<rect width="118" height="98" rx="20" fill="#0C8CE9"/>
<ellipse cx="59" cy="49.5" rx="59" ry="46.5" fill="url(#paint0_radial_0_1)"/>
<ellipse cx="59" cy="49" rx="43" ry="35" fill="url(#paint1_radial_0_1)"/>
<path d="M54.976 94.384C50.2827 94.384 45.7173 93.744 41.28 92.464C36.928 91.184 33.0453 89.136 29.632 86.32C26.2187 83.504 23.5733 79.8347 21.696 75.312C19.8187 70.96 19.0933 66.352 19.52 61.488C19.9467 55.6853 21.4827 50.224 24.128 45.104C26.7733 39.984 30.1867 35.3333 34.368 31.152C38.6347 26.9707 43.328 23.3867 48.448 20.4C53.6533 17.4133 58.9867 15.1093 64.448 13.488C69.9947 11.8667 75.328 11.056 80.448 11.056H80.96C82.496 11.056 84.288 11.2267 86.336 11.568C88.4693 11.9093 90.3467 12.592 91.968 13.616C93.5893 14.64 94.4 16.2187 94.4 18.352C94.4 19.4613 94.144 20.6133 93.632 21.808C93.0347 23.088 92.48 24.4107 91.968 25.776C91.456 27.056 90.944 28.3787 90.432 29.744L86.592 39.856L85.056 38.704C85.056 38.704 85.2693 38.1067 85.696 36.912C86.208 35.632 86.6773 34.1813 87.104 32.56C87.616 30.9387 87.9147 29.616 88 28.592C88.256 25.52 87.488 23.344 85.696 22.064C83.9893 20.6987 81.856 19.888 79.296 19.632C76.736 19.376 74.304 19.248 72 19.248C67.136 19.248 62.3147 20.0587 57.536 21.68C52.7573 23.3013 48.3627 25.6053 44.352 28.592C40.4267 31.5787 37.2267 35.2053 34.752 39.472C32.2773 43.6533 30.8267 48.3893 30.4 53.68C30.3147 54.2773 30.272 54.8747 30.272 55.472C30.272 55.984 30.272 56.496 30.272 57.008C30.272 65.456 32.704 72.0693 37.568 76.848C42.432 81.6267 49.9413 84.016 60.096 84.016C64.8747 84.016 69.9093 83.0773 75.2 81.2C80.576 79.2373 85.0987 76.592 88.768 73.264C89.7067 72.4107 90.56 71.5147 91.328 70.576C92.1813 69.6373 93.0347 68.6987 93.888 67.76L94.912 69.424C94.912 69.424 94.4427 69.936 93.504 70.96C92.5653 71.8987 91.4133 73.136 90.048 74.672C88.6827 76.1227 87.3173 77.616 85.952 79.152C84.672 80.688 83.6907 81.968 83.008 82.992C81.472 85.1253 79.8933 87.0453 78.272 88.752C76.6507 90.4587 74.4747 91.6533 71.744 92.336C69.0987 93.0187 66.3253 93.5307 63.424 93.872C60.5227 94.2133 57.7067 94.384 54.976 94.384Z" fill="url(#paint2_linear_0_1)"/>
<path d="M40.738 53.738C40.786 53.738 40.834 53.748 40.882 53.768C40.93 53.784 40.976 53.814 41.02 53.858L41.824 54.704C41.472 55.164 41.03 55.512 40.498 55.748C39.97 55.98 39.344 56.096 38.62 56.096C37.956 56.096 37.36 55.984 36.832 55.76C36.308 55.532 35.862 55.22 35.494 54.824C35.13 54.424 34.85 53.952 34.654 53.408C34.458 52.86 34.36 52.266 34.36 51.626C34.36 50.974 34.466 50.376 34.678 49.832C34.89 49.284 35.188 48.812 35.572 48.416C35.956 48.02 36.416 47.712 36.952 47.492C37.488 47.272 38.078 47.162 38.722 47.162C39.05 47.162 39.358 47.192 39.646 47.252C39.938 47.308 40.21 47.388 40.462 47.492C40.714 47.592 40.946 47.714 41.158 47.858C41.37 48.002 41.558 48.158 41.722 48.326L41.038 49.244C40.994 49.3 40.942 49.352 40.882 49.4C40.822 49.444 40.738 49.466 40.63 49.466C40.558 49.466 40.49 49.45 40.426 49.418C40.362 49.386 40.294 49.348 40.222 49.304C40.15 49.256 40.07 49.206 39.982 49.154C39.898 49.098 39.796 49.048 39.676 49.004C39.56 48.956 39.422 48.916 39.262 48.884C39.106 48.852 38.922 48.836 38.71 48.836C38.374 48.836 38.066 48.898 37.786 49.022C37.51 49.146 37.27 49.328 37.066 49.568C36.866 49.804 36.71 50.096 36.598 50.444C36.49 50.788 36.436 51.182 36.436 51.626C36.436 52.074 36.496 52.472 36.616 52.82C36.74 53.168 36.906 53.462 37.114 53.702C37.326 53.938 37.572 54.118 37.852 54.242C38.132 54.366 38.432 54.428 38.752 54.428C38.936 54.428 39.104 54.42 39.256 54.404C39.408 54.384 39.55 54.354 39.682 54.314C39.814 54.27 39.938 54.214 40.054 54.146C40.17 54.074 40.288 53.984 40.408 53.876C40.456 53.836 40.508 53.804 40.564 53.78C40.62 53.752 40.678 53.738 40.738 53.738ZM45.2324 49.682C45.7044 49.682 46.1344 49.756 46.5224 49.904C46.9104 50.052 47.2424 50.264 47.5184 50.54C47.7984 50.816 48.0144 51.152 48.1664 51.548C48.3224 51.94 48.4004 52.382 48.4004 52.874C48.4004 53.37 48.3224 53.818 48.1664 54.218C48.0144 54.614 47.7984 54.952 47.5184 55.232C47.2424 55.508 46.9104 55.722 46.5224 55.874C46.1344 56.022 45.7044 56.096 45.2324 56.096C44.7564 56.096 44.3224 56.022 43.9304 55.874C43.5424 55.722 43.2064 55.508 42.9224 55.232C42.6424 54.952 42.4244 54.614 42.2684 54.218C42.1164 53.818 42.0404 53.37 42.0404 52.874C42.0404 52.382 42.1164 51.94 42.2684 51.548C42.4244 51.152 42.6424 50.816 42.9224 50.54C43.2064 50.264 43.5424 50.052 43.9304 49.904C44.3224 49.756 44.7564 49.682 45.2324 49.682ZM45.2324 54.716C45.6604 54.716 45.9744 54.566 46.1744 54.266C46.3784 53.962 46.4804 53.502 46.4804 52.886C46.4804 52.27 46.3784 51.812 46.1744 51.512C45.9744 51.212 45.6604 51.062 45.2324 51.062C44.7924 51.062 44.4704 51.212 44.2664 51.512C44.0624 51.812 43.9604 52.27 43.9604 52.886C43.9604 53.502 44.0624 53.962 44.2664 54.266C44.4704 54.566 44.7924 54.716 45.2324 54.716ZM51.053 50.45C51.173 50.338 51.297 50.234 51.425 50.138C51.553 50.042 51.689 49.962 51.833 49.898C51.981 49.83 52.139 49.778 52.307 49.742C52.479 49.702 52.665 49.682 52.865 49.682C53.205 49.682 53.505 49.742 53.765 49.862C54.029 49.978 54.251 50.142 54.431 50.354C54.611 50.562 54.747 50.812 54.839 51.104C54.931 51.392 54.977 51.706 54.977 52.046V56H53.117V52.046C53.117 51.742 53.047 51.506 52.907 51.338C52.767 51.166 52.561 51.08 52.289 51.08C52.085 51.08 51.893 51.124 51.713 51.212C51.537 51.296 51.365 51.412 51.197 51.56V56H49.337V49.778H50.489C50.721 49.778 50.873 49.882 50.945 50.09L51.053 50.45ZM57.8968 50.45C58.0168 50.338 58.1408 50.234 58.2688 50.138C58.3968 50.042 58.5328 49.962 58.6768 49.898C58.8248 49.83 58.9828 49.778 59.1508 49.742C59.3228 49.702 59.5088 49.682 59.7088 49.682C60.0488 49.682 60.3488 49.742 60.6088 49.862C60.8728 49.978 61.0948 50.142 61.2748 50.354C61.4548 50.562 61.5908 50.812 61.6828 51.104C61.7748 51.392 61.8208 51.706 61.8208 52.046V56H59.9608V52.046C59.9608 51.742 59.8908 51.506 59.7508 51.338C59.6108 51.166 59.4048 51.08 59.1328 51.08C58.9288 51.08 58.7368 51.124 58.5568 51.212C58.3808 51.296 58.2088 51.412 58.0408 51.56V56H56.1808V49.778H57.3328C57.5648 49.778 57.7168 49.882 57.7888 50.09L57.8968 50.45ZM66.8945 52.142C66.8945 51.994 66.8745 51.85 66.8345 51.71C66.7985 51.57 66.7365 51.446 66.6485 51.338C66.5645 51.226 66.4525 51.136 66.3125 51.068C66.1725 51 66.0025 50.966 65.8025 50.966C65.4505 50.966 65.1745 51.068 64.9745 51.272C64.7745 51.472 64.6425 51.762 64.5785 52.142H66.8945ZM64.5545 53.222C64.6145 53.742 64.7725 54.12 65.0285 54.356C65.2845 54.588 65.6145 54.704 66.0185 54.704C66.2345 54.704 66.4205 54.678 66.5765 54.626C66.7325 54.574 66.8705 54.516 66.9905 54.452C67.1145 54.388 67.2265 54.33 67.3265 54.278C67.4305 54.226 67.5385 54.2 67.6505 54.2C67.7985 54.2 67.9105 54.254 67.9865 54.362L68.5265 55.028C68.3345 55.248 68.1265 55.428 67.9025 55.568C67.6825 55.704 67.4545 55.812 67.2185 55.892C66.9865 55.968 66.7525 56.02 66.5165 56.048C66.2845 56.08 66.0625 56.096 65.8505 56.096C65.4145 56.096 65.0045 56.026 64.6205 55.886C64.2405 55.742 63.9065 55.53 63.6185 55.25C63.3345 54.97 63.1085 54.622 62.9405 54.206C62.7765 53.79 62.6945 53.306 62.6945 52.754C62.6945 52.338 62.7645 51.944 62.9045 51.572C63.0485 51.2 63.2525 50.874 63.5165 50.594C63.7845 50.314 64.1065 50.092 64.4825 49.928C64.8625 49.764 65.2905 49.682 65.7665 49.682C66.1785 49.682 66.5545 49.746 66.8945 49.874C67.2385 50.002 67.5325 50.188 67.7765 50.432C68.0245 50.676 68.2165 50.976 68.3525 51.332C68.4925 51.684 68.5625 52.084 68.5625 52.532C68.5625 52.672 68.5565 52.786 68.5445 52.874C68.5325 52.962 68.5105 53.032 68.4785 53.084C68.4465 53.136 68.4025 53.172 68.3465 53.192C68.2945 53.212 68.2265 53.222 68.1425 53.222H64.5545ZM74.0653 51.254C74.0093 51.322 73.9553 51.376 73.9033 51.416C73.8513 51.456 73.7773 51.476 73.6813 51.476C73.5893 51.476 73.5053 51.454 73.4293 51.41C73.3573 51.366 73.2753 51.318 73.1833 51.266C73.0913 51.21 72.9833 51.16 72.8593 51.116C72.7353 51.072 72.5813 51.05 72.3973 51.05C72.1693 51.05 71.9713 51.092 71.8033 51.176C71.6393 51.26 71.5033 51.38 71.3953 51.536C71.2873 51.692 71.2073 51.884 71.1553 52.112C71.1033 52.336 71.0773 52.59 71.0773 52.874C71.0773 53.47 71.1913 53.928 71.4193 54.248C71.6513 54.568 71.9693 54.728 72.3733 54.728C72.5893 54.728 72.7593 54.702 72.8833 54.65C73.0113 54.594 73.1193 54.534 73.2073 54.47C73.2953 54.402 73.3753 54.34 73.4473 54.284C73.5233 54.228 73.6173 54.2 73.7293 54.2C73.8773 54.2 73.9893 54.254 74.0653 54.362L74.6053 55.028C74.4133 55.248 74.2113 55.428 73.9993 55.568C73.7873 55.704 73.5693 55.812 73.3453 55.892C73.1253 55.968 72.9033 56.02 72.6793 56.048C72.4553 56.08 72.2373 56.096 72.0253 56.096C71.6453 56.096 71.2813 56.024 70.9333 55.88C70.5893 55.736 70.2853 55.528 70.0213 55.256C69.7613 54.98 69.5533 54.642 69.3973 54.242C69.2453 53.842 69.1693 53.386 69.1693 52.874C69.1693 52.426 69.2353 52.008 69.3673 51.62C69.5033 51.228 69.7013 50.89 69.9613 50.606C70.2253 50.318 70.5493 50.092 70.9333 49.928C71.3213 49.764 71.7693 49.682 72.2773 49.682C72.7653 49.682 73.1933 49.76 73.5613 49.916C73.9293 50.072 74.2613 50.3 74.5573 50.6L74.0653 51.254ZM82.0552 56H80.1952V51.062H77.5912V54.152C77.5912 54.296 77.6252 54.416 77.6932 54.512C77.7652 54.604 77.8672 54.65 77.9992 54.65C78.0672 54.65 78.1232 54.644 78.1672 54.632C78.2152 54.616 78.2552 54.6 78.2872 54.584C78.3232 54.564 78.3552 54.548 78.3832 54.536C78.4152 54.52 78.4512 54.512 78.4912 54.512C78.5472 54.512 78.5912 54.526 78.6232 54.554C78.6592 54.578 78.6952 54.618 78.7312 54.674L79.2952 55.556C79.0552 55.736 78.7852 55.872 78.4852 55.964C78.1852 56.052 77.8752 56.096 77.5552 56.096C77.2592 56.096 76.9972 56.054 76.7692 55.97C76.5452 55.882 76.3552 55.76 76.1992 55.604C76.0472 55.444 75.9312 55.252 75.8512 55.028C75.7712 54.804 75.7312 54.554 75.7312 54.278V51.062H75.2032C75.1072 51.062 75.0252 51.032 74.9572 50.972C74.8892 50.908 74.8552 50.816 74.8552 50.696V49.97L75.8452 49.772L76.2112 48.26C76.2592 48.068 76.3952 47.972 76.6192 47.972H77.5912V49.79H82.0552V56ZM82.3132 48.068C82.3132 48.216 82.2832 48.356 82.2232 48.488C82.1632 48.62 82.0812 48.736 81.9772 48.836C81.8732 48.932 81.7512 49.008 81.6112 49.064C81.4752 49.12 81.3292 49.148 81.1732 49.148C81.0212 49.148 80.8792 49.12 80.7472 49.064C80.6152 49.008 80.4972 48.932 80.3932 48.836C80.2932 48.736 80.2132 48.62 80.1532 48.488C80.0972 48.356 80.0692 48.216 80.0692 48.068C80.0692 47.92 80.0972 47.78 80.1532 47.648C80.2132 47.512 80.2932 47.396 80.3932 47.3C80.4972 47.2 80.6152 47.122 80.7472 47.066C80.8792 47.006 81.0212 46.976 81.1732 46.976C81.3292 46.976 81.4752 47.006 81.6112 47.066C81.7512 47.122 81.8732 47.2 81.9772 47.3C82.0812 47.396 82.1632 47.512 82.2232 47.648C82.2832 47.78 82.3132 47.92 82.3132 48.068ZM83.8186 56V51.056L83.4106 50.972C83.2706 50.94 83.1566 50.89 83.0686 50.822C82.9846 50.754 82.9426 50.654 82.9426 50.522V49.79H83.8186V49.436C83.8186 49.08 83.8746 48.758 83.9866 48.47C84.1026 48.182 84.2666 47.936 84.4786 47.732C84.6946 47.528 84.9566 47.37 85.2646 47.258C85.5726 47.146 85.9226 47.09 86.3146 47.09C86.4666 47.09 86.6066 47.1 86.7346 47.12C86.8626 47.136 86.9966 47.164 87.1366 47.204L87.1006 48.11C87.0966 48.174 87.0806 48.228 87.0526 48.272C87.0246 48.312 86.9866 48.346 86.9386 48.374C86.8946 48.398 86.8466 48.416 86.7946 48.428C86.7426 48.44 86.6906 48.446 86.6386 48.446C86.4746 48.446 86.3286 48.462 86.2006 48.494C86.0726 48.526 85.9646 48.584 85.8766 48.668C85.7926 48.748 85.7286 48.856 85.6846 48.992C85.6406 49.124 85.6186 49.292 85.6186 49.496V49.79H87.0766V51.062H85.6786V56H83.8186ZM93.6611 49.778L90.3371 57.614C90.2811 57.738 90.2131 57.828 90.1331 57.884C90.0531 57.944 89.9251 57.974 89.7491 57.974H88.3571L89.5571 55.454L87.0731 49.778H88.7171C88.8611 49.778 88.9711 49.81 89.0471 49.874C89.1271 49.938 89.1851 50.014 89.2211 50.102L90.2411 52.784C90.3371 53.028 90.4151 53.278 90.4751 53.534C90.5191 53.406 90.5631 53.278 90.6071 53.15C90.6511 53.022 90.6971 52.896 90.7451 52.772L91.6691 50.102C91.7051 50.01 91.7691 49.934 91.8611 49.874C91.9531 49.81 92.0531 49.778 92.1611 49.778H93.6611Z" fill="url(#paint3_linear_0_1)"/>
<defs>
<radialGradient id="paint0_radial_0_1" cx="0" cy="0" r="1" gradientUnits="userSpaceOnUse" gradientTransform="translate(59 49) rotate(90) scale(104.5 105.955)">
<stop offset="0.145833" stop-color="#D6E480"/>
<stop offset="0.541667" stop-color="#D9D9D9" stop-opacity="0"/>
</radialGradient>
<radialGradient id="paint1_radial_0_1" cx="0" cy="0" r="1" gradientUnits="userSpaceOnUse" gradientTransform="translate(59 49) rotate(90) scale(35 43)">
<stop offset="0.84375" stop-color="#2C2C2C"/>
<stop offset="1" stop-color="#5F6CDC" stop-opacity="0"/>
</radialGradient>
<linearGradient id="paint2_linear_0_1" x1="122" y1="49" x2="-0.500003" y2="49.5" gradientUnits="userSpaceOnUse">
<stop offset="0.0572917" stop-color="white"/>
<stop offset="1" stop-color="#539856" stop-opacity="0"/>
</linearGradient>
<linearGradient id="paint3_linear_0_1" x1="38.2857" y1="44" x2="110.531" y2="44" gradientUnits="userSpaceOnUse">
<stop offset="0.22333" stop-color="#60C06A"/>
<stop offset="1" stop-color="#60C06A" stop-opacity="0"/>
</linearGradient>
</defs>
</svg>
