<svg width="662" height="148" viewBox="0 0 662 148" fill="none" xmlns="http://www.w3.org/2000/svg">
<rect width="662" height="148" rx="20" fill="#D9D9D9" fill-opacity="0.02"/>
<rect x="513" y="28" width="118" height="98" rx="20" fill="#0C8CE9"/>
<ellipse cx="572" cy="77.5" rx="59" ry="46.5" fill="url(#paint0_radial_0_1)"/>
<ellipse cx="572" cy="77" rx="43" ry="35" fill="url(#paint1_radial_0_1)"/>
<path d="M567.976 122.384C563.283 122.384 558.717 121.744 554.28 120.464C549.928 119.184 546.045 117.136 542.632 114.32C539.219 111.504 536.573 107.835 534.696 103.312C532.819 98.96 532.093 94.352 532.52 89.488C532.947 83.6853 534.483 78.224 537.128 73.104C539.773 67.984 543.187 63.3333 547.368 59.152C551.635 54.9707 556.328 51.3867 561.448 48.4C566.653 45.4133 571.987 43.1093 577.448 41.488C582.995 39.8667 588.328 39.056 593.448 39.056H593.96C595.496 39.056 597.288 39.2267 599.336 39.568C601.469 39.9093 603.347 40.592 604.968 41.616C606.589 42.64 607.4 44.2187 607.4 46.352C607.4 47.4613 607.144 48.6133 606.632 49.808C606.035 51.088 605.48 52.4107 604.968 53.776C604.456 55.056 603.944 56.3787 603.432 57.744L599.592 67.856L598.056 66.704C598.056 66.704 598.269 66.1067 598.696 64.912C599.208 63.632 599.677 62.1813 600.104 60.56C600.616 58.9387 600.915 57.616 601 56.592C601.256 53.52 600.488 51.344 598.696 50.064C596.989 48.6987 594.856 47.888 592.296 47.632C589.736 47.376 587.304 47.248 585 47.248C580.136 47.248 575.315 48.0587 570.536 49.68C565.757 51.3013 561.363 53.6053 557.352 56.592C553.427 59.5787 550.227 63.2053 547.752 67.472C545.277 71.6533 543.827 76.3893 543.4 81.68C543.315 82.2773 543.272 82.8747 543.272 83.472C543.272 83.984 543.272 84.496 543.272 85.008C543.272 93.456 545.704 100.069 550.568 104.848C555.432 109.627 562.941 112.016 573.096 112.016C577.875 112.016 582.909 111.077 588.2 109.2C593.576 107.237 598.099 104.592 601.768 101.264C602.707 100.411 603.56 99.5147 604.328 98.576C605.181 97.6373 606.035 96.6987 606.888 95.76L607.912 97.424C607.912 97.424 607.443 97.936 606.504 98.96C605.565 99.8987 604.413 101.136 603.048 102.672C601.683 104.123 600.317 105.616 598.952 107.152C597.672 108.688 596.691 109.968 596.008 110.992C594.472 113.125 592.893 115.045 591.272 116.752C589.651 118.459 587.475 119.653 584.744 120.336C582.099 121.019 579.325 121.531 576.424 121.872C573.523 122.213 570.707 122.384 567.976 122.384Z" fill="url(#paint2_linear_0_1)"/>
<path d="M553.738 81.738C553.786 81.738 553.834 81.748 553.882 81.768C553.93 81.784 553.976 81.814 554.02 81.858L554.824 82.704C554.472 83.164 554.03 83.512 553.498 83.748C552.97 83.98 552.344 84.096 551.62 84.096C550.956 84.096 550.36 83.984 549.832 83.76C549.308 83.532 548.862 83.22 548.494 82.824C548.13 82.424 547.85 81.952 547.654 81.408C547.458 80.86 547.36 80.266 547.36 79.626C547.36 78.974 547.466 78.376 547.678 77.832C547.89 77.284 548.188 76.812 548.572 76.416C548.956 76.02 549.416 75.712 549.952 75.492C550.488 75.272 551.078 75.162 551.722 75.162C552.05 75.162 552.358 75.192 552.646 75.252C552.938 75.308 553.21 75.388 553.462 75.492C553.714 75.592 553.946 75.714 554.158 75.858C554.37 76.002 554.558 76.158 554.722 76.326L554.038 77.244C553.994 77.3 553.942 77.352 553.882 77.4C553.822 77.444 553.738 77.466 553.63 77.466C553.558 77.466 553.49 77.45 553.426 77.418C553.362 77.386 553.294 77.348 553.222 77.304C553.15 77.256 553.07 77.206 552.982 77.154C552.898 77.098 552.796 77.048 552.676 77.004C552.56 76.956 552.422 76.916 552.262 76.884C552.106 76.852 551.922 76.836 551.71 76.836C551.374 76.836 551.066 76.898 550.786 77.022C550.51 77.146 550.27 77.328 550.066 77.568C549.866 77.804 549.71 78.096 549.598 78.444C549.49 78.788 549.436 79.182 549.436 79.626C549.436 80.074 549.496 80.472 549.616 80.82C549.74 81.168 549.906 81.462 550.114 81.702C550.326 81.938 550.572 82.118 550.852 82.242C551.132 82.366 551.432 82.428 551.752 82.428C551.936 82.428 552.104 82.42 552.256 82.404C552.408 82.384 552.55 82.354 552.682 82.314C552.814 82.27 552.938 82.214 553.054 82.146C553.17 82.074 553.288 81.984 553.408 81.876C553.456 81.836 553.508 81.804 553.564 81.78C553.62 81.752 553.678 81.738 553.738 81.738ZM558.232 77.682C558.704 77.682 559.134 77.756 559.522 77.904C559.91 78.052 560.242 78.264 560.518 78.54C560.798 78.816 561.014 79.152 561.166 79.548C561.322 79.94 561.4 80.382 561.4 80.874C561.4 81.37 561.322 81.818 561.166 82.218C561.014 82.614 560.798 82.952 560.518 83.232C560.242 83.508 559.91 83.722 559.522 83.874C559.134 84.022 558.704 84.096 558.232 84.096C557.756 84.096 557.322 84.022 556.93 83.874C556.542 83.722 556.206 83.508 555.922 83.232C555.642 82.952 555.424 82.614 555.268 82.218C555.116 81.818 555.04 81.37 555.04 80.874C555.04 80.382 555.116 79.94 555.268 79.548C555.424 79.152 555.642 78.816 555.922 78.54C556.206 78.264 556.542 78.052 556.93 77.904C557.322 77.756 557.756 77.682 558.232 77.682ZM558.232 82.716C558.66 82.716 558.974 82.566 559.174 82.266C559.378 81.962 559.48 81.502 559.48 80.886C559.48 80.27 559.378 79.812 559.174 79.512C558.974 79.212 558.66 79.062 558.232 79.062C557.792 79.062 557.47 79.212 557.266 79.512C557.062 79.812 556.96 80.27 556.96 80.886C556.96 81.502 557.062 81.962 557.266 82.266C557.47 82.566 557.792 82.716 558.232 82.716ZM564.053 78.45C564.173 78.338 564.297 78.234 564.425 78.138C564.553 78.042 564.689 77.962 564.833 77.898C564.981 77.83 565.139 77.778 565.307 77.742C565.479 77.702 565.665 77.682 565.865 77.682C566.205 77.682 566.505 77.742 566.765 77.862C567.029 77.978 567.251 78.142 567.431 78.354C567.611 78.562 567.747 78.812 567.839 79.104C567.931 79.392 567.977 79.706 567.977 80.046V84H566.117V80.046C566.117 79.742 566.047 79.506 565.907 79.338C565.767 79.166 565.561 79.08 565.289 79.08C565.085 79.08 564.893 79.124 564.713 79.212C564.537 79.296 564.365 79.412 564.197 79.56V84H562.337V77.778H563.489C563.721 77.778 563.873 77.882 563.945 78.09L564.053 78.45ZM570.897 78.45C571.017 78.338 571.141 78.234 571.269 78.138C571.397 78.042 571.533 77.962 571.677 77.898C571.825 77.83 571.983 77.778 572.151 77.742C572.323 77.702 572.509 77.682 572.709 77.682C573.049 77.682 573.349 77.742 573.609 77.862C573.873 77.978 574.095 78.142 574.275 78.354C574.455 78.562 574.591 78.812 574.683 79.104C574.775 79.392 574.821 79.706 574.821 80.046V84H572.961V80.046C572.961 79.742 572.891 79.506 572.751 79.338C572.611 79.166 572.405 79.08 572.133 79.08C571.929 79.08 571.737 79.124 571.557 79.212C571.381 79.296 571.209 79.412 571.041 79.56V84H569.181V77.778H570.333C570.565 77.778 570.717 77.882 570.789 78.09L570.897 78.45ZM579.895 80.142C579.895 79.994 579.875 79.85 579.835 79.71C579.799 79.57 579.737 79.446 579.649 79.338C579.565 79.226 579.453 79.136 579.313 79.068C579.173 79 579.003 78.966 578.803 78.966C578.451 78.966 578.175 79.068 577.975 79.272C577.775 79.472 577.643 79.762 577.579 80.142H579.895ZM577.555 81.222C577.615 81.742 577.773 82.12 578.029 82.356C578.285 82.588 578.615 82.704 579.019 82.704C579.235 82.704 579.421 82.678 579.577 82.626C579.733 82.574 579.871 82.516 579.991 82.452C580.115 82.388 580.227 82.33 580.327 82.278C580.431 82.226 580.539 82.2 580.651 82.2C580.799 82.2 580.911 82.254 580.987 82.362L581.527 83.028C581.335 83.248 581.127 83.428 580.903 83.568C580.683 83.704 580.455 83.812 580.219 83.892C579.987 83.968 579.753 84.02 579.517 84.048C579.285 84.08 579.063 84.096 578.851 84.096C578.415 84.096 578.005 84.026 577.621 83.886C577.241 83.742 576.907 83.53 576.619 83.25C576.335 82.97 576.109 82.622 575.941 82.206C575.777 81.79 575.695 81.306 575.695 80.754C575.695 80.338 575.765 79.944 575.905 79.572C576.049 79.2 576.253 78.874 576.517 78.594C576.785 78.314 577.107 78.092 577.483 77.928C577.863 77.764 578.291 77.682 578.767 77.682C579.179 77.682 579.555 77.746 579.895 77.874C580.239 78.002 580.533 78.188 580.777 78.432C581.025 78.676 581.217 78.976 581.353 79.332C581.493 79.684 581.563 80.084 581.563 80.532C581.563 80.672 581.557 80.786 581.545 80.874C581.533 80.962 581.511 81.032 581.479 81.084C581.447 81.136 581.403 81.172 581.347 81.192C581.295 81.212 581.227 81.222 581.143 81.222H577.555ZM587.065 79.254C587.009 79.322 586.955 79.376 586.903 79.416C586.851 79.456 586.777 79.476 586.681 79.476C586.589 79.476 586.505 79.454 586.429 79.41C586.357 79.366 586.275 79.318 586.183 79.266C586.091 79.21 585.983 79.16 585.859 79.116C585.735 79.072 585.581 79.05 585.397 79.05C585.169 79.05 584.971 79.092 584.803 79.176C584.639 79.26 584.503 79.38 584.395 79.536C584.287 79.692 584.207 79.884 584.155 80.112C584.103 80.336 584.077 80.59 584.077 80.874C584.077 81.47 584.191 81.928 584.419 82.248C584.651 82.568 584.969 82.728 585.373 82.728C585.589 82.728 585.759 82.702 585.883 82.65C586.011 82.594 586.119 82.534 586.207 82.47C586.295 82.402 586.375 82.34 586.447 82.284C586.523 82.228 586.617 82.2 586.729 82.2C586.877 82.2 586.989 82.254 587.065 82.362L587.605 83.028C587.413 83.248 587.211 83.428 586.999 83.568C586.787 83.704 586.569 83.812 586.345 83.892C586.125 83.968 585.903 84.02 585.679 84.048C585.455 84.08 585.237 84.096 585.025 84.096C584.645 84.096 584.281 84.024 583.933 83.88C583.589 83.736 583.285 83.528 583.021 83.256C582.761 82.98 582.553 82.642 582.397 82.242C582.245 81.842 582.169 81.386 582.169 80.874C582.169 80.426 582.235 80.008 582.367 79.62C582.503 79.228 582.701 78.89 582.961 78.606C583.225 78.318 583.549 78.092 583.933 77.928C584.321 77.764 584.769 77.682 585.277 77.682C585.765 77.682 586.193 77.76 586.561 77.916C586.929 78.072 587.261 78.3 587.557 78.6L587.065 79.254ZM595.055 84H593.195V79.062H590.591V82.152C590.591 82.296 590.625 82.416 590.693 82.512C590.765 82.604 590.867 82.65 590.999 82.65C591.067 82.65 591.123 82.644 591.167 82.632C591.215 82.616 591.255 82.6 591.287 82.584C591.323 82.564 591.355 82.548 591.383 82.536C591.415 82.52 591.451 82.512 591.491 82.512C591.547 82.512 591.591 82.526 591.623 82.554C591.659 82.578 591.695 82.618 591.731 82.674L592.295 83.556C592.055 83.736 591.785 83.872 591.485 83.964C591.185 84.052 590.875 84.096 590.555 84.096C590.259 84.096 589.997 84.054 589.769 83.97C589.545 83.882 589.355 83.76 589.199 83.604C589.047 83.444 588.931 83.252 588.851 83.028C588.771 82.804 588.731 82.554 588.731 82.278V79.062H588.203C588.107 79.062 588.025 79.032 587.957 78.972C587.889 78.908 587.855 78.816 587.855 78.696V77.97L588.845 77.772L589.211 76.26C589.259 76.068 589.395 75.972 589.619 75.972H590.591V77.79H595.055V84ZM595.313 76.068C595.313 76.216 595.283 76.356 595.223 76.488C595.163 76.62 595.081 76.736 594.977 76.836C594.873 76.932 594.751 77.008 594.611 77.064C594.475 77.12 594.329 77.148 594.173 77.148C594.021 77.148 593.879 77.12 593.747 77.064C593.615 77.008 593.497 76.932 593.393 76.836C593.293 76.736 593.213 76.62 593.153 76.488C593.097 76.356 593.069 76.216 593.069 76.068C593.069 75.92 593.097 75.78 593.153 75.648C593.213 75.512 593.293 75.396 593.393 75.3C593.497 75.2 593.615 75.122 593.747 75.066C593.879 75.006 594.021 74.976 594.173 74.976C594.329 74.976 594.475 75.006 594.611 75.066C594.751 75.122 594.873 75.2 594.977 75.3C595.081 75.396 595.163 75.512 595.223 75.648C595.283 75.78 595.313 75.92 595.313 76.068ZM596.819 84V79.056L596.411 78.972C596.271 78.94 596.157 78.89 596.069 78.822C595.985 78.754 595.943 78.654 595.943 78.522V77.79H596.819V77.436C596.819 77.08 596.875 76.758 596.987 76.47C597.103 76.182 597.267 75.936 597.479 75.732C597.695 75.528 597.957 75.37 598.265 75.258C598.573 75.146 598.923 75.09 599.315 75.09C599.467 75.09 599.607 75.1 599.735 75.12C599.863 75.136 599.997 75.164 600.137 75.204L600.101 76.11C600.097 76.174 600.081 76.228 600.053 76.272C600.025 76.312 599.987 76.346 599.939 76.374C599.895 76.398 599.847 76.416 599.795 76.428C599.743 76.44 599.691 76.446 599.639 76.446C599.475 76.446 599.329 76.462 599.201 76.494C599.073 76.526 598.965 76.584 598.877 76.668C598.793 76.748 598.729 76.856 598.685 76.992C598.641 77.124 598.619 77.292 598.619 77.496V77.79H600.077V79.062H598.679V84H596.819ZM606.661 77.778L603.337 85.614C603.281 85.738 603.213 85.828 603.133 85.884C603.053 85.944 602.925 85.974 602.749 85.974H601.357L602.557 83.454L600.073 77.778H601.717C601.861 77.778 601.971 77.81 602.047 77.874C602.127 77.938 602.185 78.014 602.221 78.102L603.241 80.784C603.337 81.028 603.415 81.278 603.475 81.534C603.519 81.406 603.563 81.278 603.607 81.15C603.651 81.022 603.697 80.896 603.745 80.772L604.669 78.102C604.705 78.01 604.769 77.934 604.861 77.874C604.953 77.81 605.053 77.778 605.161 77.778H606.661Z" fill="url(#paint3_linear_0_1)"/>
<path d="M80.4822 62.63H68.5291C68.1882 60.6697 67.5597 58.9332 66.6435 57.4205C65.7273 55.8864 64.5874 54.5866 63.2237 53.5213C61.8601 52.456 60.3047 51.657 58.5575 51.1243C56.8317 50.5703 54.9673 50.2933 52.9645 50.2933C49.4063 50.2933 46.2528 51.1882 43.5043 52.978C40.7557 54.7464 38.6037 57.3459 37.0483 60.7763C35.4929 64.1854 34.7152 68.3509 34.7152 73.2727C34.7152 78.2798 35.4929 82.4986 37.0483 85.929C38.625 89.3381 40.777 91.9162 43.5043 93.6634C46.2528 95.3892 49.3956 96.2521 52.9325 96.2521C54.8928 96.2521 56.7251 95.9964 58.4297 95.4851C60.1555 94.9524 61.7003 94.1747 63.0639 93.152C64.4489 92.1293 65.6101 90.8722 66.5476 89.3807C67.5064 87.8892 68.1669 86.1847 68.5291 84.267L80.4822 84.331C80.0348 87.4418 79.0653 90.3608 77.5739 93.0881C76.1037 95.8153 74.1754 98.223 71.7891 100.311C69.4027 102.378 66.6115 103.997 63.4155 105.169C60.2195 106.32 56.6719 106.895 52.7727 106.895C47.0199 106.895 41.8849 105.563 37.3679 102.9C32.8509 100.237 29.2926 96.3906 26.6932 91.3622C24.0938 86.3338 22.794 80.304 22.794 73.2727C22.794 66.2202 24.1044 60.1903 26.7251 55.1832C29.3459 50.1548 32.9148 46.3089 37.4318 43.6456C41.9489 40.9822 47.0625 39.6506 52.7727 39.6506C56.4162 39.6506 59.804 40.1619 62.9361 41.1847C66.0682 42.2074 68.8594 43.7095 71.3097 45.6911C73.7599 47.6513 75.7734 50.0589 77.3501 52.9141C78.9482 55.7479 79.9922 58.9865 80.4822 62.63ZM112.243 106.959C107.449 106.959 103.294 105.904 99.7782 103.795C96.2626 101.685 93.5353 98.7344 91.5964 94.9418C89.6788 91.1491 88.72 86.7173 88.72 81.6463C88.72 76.5753 89.6788 72.1328 91.5964 68.3189C93.5353 64.505 96.2626 61.5433 99.7782 59.4339C103.294 57.3246 107.449 56.2699 112.243 56.2699C117.037 56.2699 121.192 57.3246 124.707 59.4339C128.223 61.5433 130.939 64.505 132.857 68.3189C134.796 72.1328 135.765 76.5753 135.765 81.6463C135.765 86.7173 134.796 91.1491 132.857 94.9418C130.939 98.7344 128.223 101.685 124.707 103.795C121.192 105.904 117.037 106.959 112.243 106.959ZM112.307 97.6903C114.906 97.6903 117.079 96.9766 118.827 95.549C120.574 94.1001 121.873 92.1612 122.726 89.7322C123.599 87.3033 124.036 84.5973 124.036 81.6143C124.036 78.6101 123.599 75.8935 122.726 73.4645C121.873 71.0142 120.574 69.0646 118.827 67.6158C117.079 66.1669 114.906 65.4425 112.307 65.4425C109.643 65.4425 107.427 66.1669 105.659 67.6158C103.912 69.0646 102.601 71.0142 101.728 73.4645C100.876 75.8935 100.449 78.6101 100.449 81.6143C100.449 84.5973 100.876 87.3033 101.728 89.7322C102.601 92.1612 103.912 94.1001 105.659 95.549C107.427 96.9766 109.643 97.6903 112.307 97.6903ZM157.155 77.2358V106H145.585V56.9091H156.643V65.2507H157.219C158.348 62.5021 160.148 60.3182 162.62 58.6989C165.113 57.0795 168.192 56.2699 171.857 56.2699C175.244 56.2699 178.195 56.9943 180.71 58.4432C183.245 59.892 185.205 61.9908 186.59 64.7393C187.996 67.4879 188.689 70.8224 188.668 74.7429V106H177.098V76.5327C177.098 73.2514 176.246 70.6839 174.541 68.8303C172.858 66.9766 170.525 66.0497 167.542 66.0497C165.518 66.0497 163.717 66.4972 162.141 67.392C160.585 68.2656 159.36 69.5334 158.465 71.1953C157.592 72.8572 157.155 74.8707 157.155 77.2358ZM211.999 77.2358V106H200.429V56.9091H211.487V65.2507H212.062C213.192 62.5021 214.992 60.3182 217.464 58.6989C219.957 57.0795 223.036 56.2699 226.7 56.2699C230.088 56.2699 233.039 56.9943 235.553 58.4432C238.089 59.892 240.049 61.9908 241.434 64.7393C242.84 67.4879 243.533 70.8224 243.511 74.7429V106H231.942V76.5327C231.942 73.2514 231.089 70.6839 229.385 68.8303C227.702 66.9766 225.369 66.0497 222.386 66.0497C220.362 66.0497 218.561 66.4972 216.984 67.392C215.429 68.2656 214.204 69.5334 213.309 71.1953C212.435 72.8572 211.999 74.8707 211.999 77.2358ZM277.006 106.959C272.084 106.959 267.833 105.936 264.254 103.891C260.695 101.824 257.957 98.9048 256.04 95.1335C254.122 91.3409 253.163 86.8771 253.163 81.7422C253.163 76.6925 254.122 72.2607 256.04 68.4467C257.979 64.6115 260.685 61.6285 264.158 59.4979C267.631 57.3459 271.711 56.2699 276.398 56.2699C279.424 56.2699 282.279 56.7599 284.964 57.7401C287.67 58.6989 290.056 60.1903 292.123 62.2145C294.211 64.2386 295.852 66.8168 297.045 69.9489C298.238 73.0597 298.835 76.767 298.835 81.071V84.6186H258.597V76.8203H287.744C287.723 74.6044 287.244 72.6335 286.306 70.9077C285.369 69.1605 284.058 67.7862 282.375 66.7848C280.713 65.7834 278.774 65.2827 276.558 65.2827C274.193 65.2827 272.116 65.858 270.326 67.0085C268.536 68.1378 267.141 69.6293 266.139 71.483C265.159 73.3153 264.658 75.3288 264.637 77.5234V84.331C264.637 87.1861 265.159 89.6364 266.203 91.6818C267.247 93.706 268.707 95.2614 270.582 96.348C272.457 97.4134 274.651 97.946 277.165 97.946C278.849 97.946 280.372 97.7116 281.736 97.2429C283.099 96.7528 284.282 96.0391 285.283 95.1016C286.285 94.1641 287.041 93.0028 287.553 91.6179L298.355 92.8324C297.673 95.6875 296.374 98.1804 294.456 100.311C292.56 102.42 290.131 104.061 287.169 105.233C284.207 106.384 280.82 106.959 277.006 106.959ZM330.036 106.959C325.135 106.959 320.927 105.883 317.411 103.731C313.917 101.579 311.222 98.6065 309.325 94.8139C307.45 91 306.513 86.6108 306.513 81.6463C306.513 76.6605 307.472 72.2607 309.389 68.4467C311.307 64.6115 314.013 61.6285 317.507 59.4979C321.023 57.3459 325.178 56.2699 329.972 56.2699C333.956 56.2699 337.482 57.005 340.551 58.4751C343.64 59.924 346.101 61.9801 347.933 64.6435C349.766 67.2855 350.81 70.375 351.066 73.9119H340.007C339.56 71.5469 338.494 69.576 336.811 67.9993C335.149 66.4013 332.923 65.6023 330.132 65.6023C327.767 65.6023 325.689 66.2415 323.899 67.5199C322.11 68.777 320.714 70.5881 319.713 72.9531C318.732 75.3182 318.242 78.152 318.242 81.4545C318.242 84.7997 318.732 87.6761 319.713 90.0838C320.693 92.4702 322.067 94.3132 323.835 95.6129C325.625 96.8913 327.724 97.5305 330.132 97.5305C331.836 97.5305 333.36 97.2109 334.702 96.5717C336.066 95.9112 337.205 94.9631 338.122 93.7273C339.038 92.4915 339.666 90.9893 340.007 89.2209H351.066C350.789 92.6939 349.766 95.7727 347.997 98.4574C346.229 101.121 343.821 103.209 340.774 104.722C337.727 106.213 334.148 106.959 330.036 106.959ZM385.079 56.9091V65.858H356.858V56.9091H385.079ZM363.826 45.1477H375.395V91.2344C375.395 92.7898 375.63 93.983 376.098 94.8139C376.588 95.6236 377.228 96.1776 378.016 96.4759C378.804 96.7741 379.678 96.9233 380.637 96.9233C381.361 96.9233 382.022 96.87 382.618 96.7635C383.236 96.657 383.705 96.5611 384.025 96.4759L385.974 105.521C385.356 105.734 384.472 105.968 383.321 106.224C382.192 106.479 380.807 106.629 379.167 106.671C376.269 106.756 373.659 106.32 371.336 105.361C369.014 104.381 367.171 102.868 365.807 100.822C364.465 98.777 363.804 96.2202 363.826 93.152V45.1477ZM394.755 106V56.9091H406.325V106H394.755ZM400.572 49.9418C398.74 49.9418 397.163 49.3345 395.842 48.12C394.521 46.8842 393.86 45.4034 393.86 43.6776C393.86 41.9304 394.521 40.4496 395.842 39.2351C397.163 37.9993 398.74 37.3814 400.572 37.3814C402.426 37.3814 404.002 37.9993 405.302 39.2351C406.623 40.4496 407.284 41.9304 407.284 43.6776C407.284 45.4034 406.623 46.8842 405.302 48.12C404.002 49.3345 402.426 49.9418 400.572 49.9418ZM443.087 56.9091V65.858H414.067V56.9091H443.087ZM421.322 106V52.2749C421.322 48.9723 422.004 46.2237 423.368 44.0291C424.752 41.8345 426.606 40.1939 428.929 39.1072C431.251 38.0206 433.829 37.4773 436.663 37.4773C438.666 37.4773 440.445 37.6371 442 37.9567C443.556 38.2763 444.706 38.5639 445.452 38.8196L443.151 47.7685C442.661 47.6193 442.043 47.4702 441.297 47.321C440.551 47.1506 439.721 47.0653 438.804 47.0653C436.652 47.0653 435.129 47.5874 434.234 48.6314C433.36 49.6541 432.924 51.1243 432.924 53.0419V106H421.322ZM459.339 124.409C457.762 124.409 456.303 124.281 454.96 124.026C453.639 123.791 452.585 123.514 451.796 123.195L454.481 114.182C456.164 114.672 457.666 114.906 458.987 114.885C460.308 114.864 461.469 114.448 462.471 113.638C463.494 112.85 464.357 111.529 465.06 109.675L466.05 107.023L448.249 56.9091H460.521L471.835 93.983H472.347L483.692 56.9091H495.997L476.342 111.945C475.425 114.544 474.211 116.771 472.698 118.624C471.185 120.499 469.332 121.927 467.137 122.907C464.964 123.908 462.364 124.409 459.339 124.409Z" fill="url(#paint4_linear_0_1)"/>
<defs>
<radialGradient id="paint0_radial_0_1" cx="0" cy="0" r="1" gradientUnits="userSpaceOnUse" gradientTransform="translate(572 77) rotate(90) scale(104.5 105.955)">
<stop offset="0.145833" stop-color="#D6E480"/>
<stop offset="0.541667" stop-color="#D9D9D9" stop-opacity="0"/>
</radialGradient>
<radialGradient id="paint1_radial_0_1" cx="0" cy="0" r="1" gradientUnits="userSpaceOnUse" gradientTransform="translate(572 77) rotate(90) scale(35 43)">
<stop offset="0.84375" stop-color="#2C2C2C"/>
<stop offset="1" stop-color="#5F6CDC" stop-opacity="0"/>
</radialGradient>
<linearGradient id="paint2_linear_0_1" x1="635" y1="77" x2="512.5" y2="77.5" gradientUnits="userSpaceOnUse">
<stop offset="0.0572917" stop-color="white"/>
<stop offset="1" stop-color="#539856" stop-opacity="0"/>
</linearGradient>
<linearGradient id="paint3_linear_0_1" x1="551.286" y1="72" x2="623.531" y2="72" gradientUnits="userSpaceOnUse">
<stop offset="0.22333" stop-color="#60C06A"/>
<stop offset="1" stop-color="#60C06A" stop-opacity="0"/>
</linearGradient>
<linearGradient id="paint4_linear_0_1" x1="273" y1="175.885" x2="273" y2="86.2365" gradientUnits="userSpaceOnUse">
<stop offset="0.354167" stop-color="#3FAC4A"/>
<stop offset="0.796632" stop-color="#59C063"/>
<stop offset="1" stop-color="#71D27B"/>
</linearGradient>
</defs>
</svg>
